<svg xmlns="http://www.w3.org/2000/svg" viewBox="0 0 32 32">
  <rect width="32" height="32" rx="7" fill="#0f766e"/><g stroke="#ffffff" stroke-width="1.9" stroke-linecap="round"><line x1="16.00" y1="12.80" x2="16.00" y2="3.80"/><line x1="18.26" y1="13.74" x2="24.63" y2="7.37"/><line x1="19.20" y1="16.00" x2="28.20" y2="16.00"/><line x1="18.26" y1="18.26" x2="24.63" y2="24.63"/><line x1="16.00" y1="19.20" x2="16.00" y2="28.20"/><line x1="13.74" y1="18.26" x2="7.37" y2="24.63"/><line x1="12.80" y1="16.00" x2="3.80" y2="16.00"/><line x1="13.74" y1="13.74" x2="7.37" y2="7.37"/></g><g fill="#ffffff"><circle cx="16.00" cy="3.40" r="1.7"/><circle cx="24.91" cy="7.09" r="1.7"/><circle cx="28.60" cy="16.00" r="1.7"/><circle cx="24.91" cy="24.91" r="1.7"/><circle cx="16.00" cy="28.60" r="1.7"/><circle cx="7.09" cy="24.91" r="1.7"/><circle cx="3.40" cy="16.00" r="1.7"/><circle cx="7.09" cy="7.09" r="1.7"/></g><circle cx="16" cy="16" r="8.3" fill="none" stroke="#ffffff" stroke-width="2.6"/><circle cx="16" cy="16" r="3" fill="#ffffff"/><circle cx="16" cy="16" r="1.1" fill="#0f766e"/>
</svg>
